# xmcd CD database file
#
# Track frame offsets:
#	183
#	13717
#	26116
#	39369
#	56565
#	68821
#	82841
#	96344
#	113132
#	125628
#	139893
#	153344
#	167710
#	183001
#
# Disc length: 2619 seconds
#
# Revision: 0
# Processed by: cddbd v1.5.2PL0 Copyright (c) Steve Scherf et al.
# Submitted via: CDex 1.51
#
DISCID=b30a390e
DTITLE=Sidney Bechet - Martial Solal Quartet  (Solal, piano)
DYEAR=2006
DGENRE=Jazz
TTITLE0=I only have eyes for you  (1 à 8 - Paris le 12 Mars 1957)
TTITLE1=The man I love
TTITLE2=Exactly like you
TTITLE3=These foolish things
TTITLE4=Once in a while
TTITLE5=Jeepers creepers
TTITLE6=I never knew
TTITLE7=Pennies from heaven
TTITLE8=All the things you are  (9 à 14 - Paris le 17 Juin 1957)
TTITLE9=All of me
TTITLE10=Embraceable you
TTITLE11=Wrap your troubles in dreams
TTITLE12=Rose room
TTITLE13=It don't mean a thing
EXTD=YEAR: 2006
EXTT0=
EXTT1=
EXTT2=
EXTT3=
EXTT4=
EXTT5=
EXTT6=
EXTT7=
EXTT8=
EXTT9=
EXTT10=
EXTT11=
EXTT12=
EXTT13=
PLAYORDER=
